<?xml version="1.0" encoding="utf-8"?>
<!-- Generator: Adobe Illustrator 27.0.0, SVG Export Plug-In . SVG Version: 6.00 Build 0)  -->
<svg version="1.1" id="Layer_1" xmlns="http://www.w3.org/2000/svg" xmlns:xlink="http://www.w3.org/1999/xlink" x="0px" y="0px"
	 viewBox="0 0 453.2 31.3" style="enable-background:new 0 0 453.2 31.3;" xml:space="preserve">
<style type="text/css">
	.st0{fill:#FFFFFF;}
	.st1{fill:#10357F;}
	.st2{fill:#FF5F00;}
	.st3{fill:#EB001B;}
	.st4{fill:#F79E1B;}
	.st5{fill:#7673C0;}
	.st6{fill:#00A1DF;}
	.st7{fill:#253B80;}
	.st8{fill:#179BD7;}
	.st9{fill:#222D65;}
	.st10{fill:#1A1F71;}
	.st11{fill:#006FCF;}
	.st12{fill:none;stroke:#000000;stroke-width:0.9771;stroke-miterlimit:10;}
	.st13{fill:#B2FCE4;stroke:#000000;stroke-width:0.75;stroke-miterlimit:10;}
	.st14{fill:#FFB3C7;stroke:#000000;stroke-width:0.742;stroke-miterlimit:10;}
	.st15{fill:#FFFFFF;stroke:#000000;stroke-width:0.75;stroke-miterlimit:10;}
	.st16{fill:#0A0B09;}
</style>
<g id="Layer_2_1_">
</g>
<g id="Layer_3">
</g>
<g>
	<path id="XMLID_12_" d="M46.4,1.8H10.3c-0.2,0-0.3,0-0.5,0c-0.1,0-0.3,0-0.4,0c-0.3,0-0.6,0-0.8,0.1C8.4,1.9,8.1,2,7.8,2.1
		C7.6,2.2,7.3,2.4,7.1,2.6S6.7,3,6.6,3.3C6.5,3.5,6.4,3.8,6.3,4.1S6.2,4.7,6.2,4.9c0,0.1,0,0.3,0,0.4c0,0.2,0,0.3,0,0.5v20.3
		c0,0.2,0,0.3,0,0.5c0,0.1,0,0.3,0,0.4c0,0.3,0,0.6,0.1,0.8c0.1,0.3,0.1,0.5,0.3,0.8c0.1,0.2,0.3,0.5,0.5,0.7
		c0.2,0.2,0.4,0.4,0.7,0.5C8,29.9,8.3,30,8.6,30.1s0.6,0.1,0.8,0.1c0.1,0,0.3,0,0.4,0c0.2,0,0.3,0,0.5,0h36.2c0.2,0,0.3,0,0.5,0
		c0.1,0,0.3,0,0.4,0c0.3,0,0.6,0,0.8-0.1c0.3-0.1,0.5-0.1,0.8-0.3c0.2-0.1,0.5-0.3,0.7-0.5c0.2-0.2,0.4-0.4,0.5-0.7
		c0.1-0.2,0.2-0.5,0.3-0.8c0.1-0.3,0.1-0.6,0.1-0.8c0-0.1,0-0.3,0-0.4c0-0.2,0-0.3,0-0.5V5.7c0-0.2,0-0.3,0-0.5c0-0.1,0-0.3,0-0.4
		c0-0.3,0-0.6-0.1-0.8c-0.1-0.3-0.1-0.5-0.3-0.8c-0.1-0.2-0.3-0.5-0.5-0.7s-0.3-0.2-0.6-0.3c-0.2-0.1-0.5-0.2-0.8-0.3
		c-0.3-0.1-0.5-0.1-0.7-0.1c-0.1,0-0.6,0-0.7,0C46.6,1.8,46.6,1.8,46.4,1.8L46.4,1.8z"/>
	<path id="XMLID_11_" class="st0" d="M46.4,2.7h0.5c0.1,0,0.2,0,0.4,0c0.2,0,0.5,0,0.7,0.1c0.2,0,0.4,0.1,0.5,0.2
		c0.2,0.1,0.3,0.2,0.4,0.3c0.1,0.1,0.2,0.3,0.3,0.4c0.1,0.1,0.1,0.3,0.2,0.5s0.1,0.5,0.1,0.7c0,0.1,0,0.2,0,0.4s0,0.3,0,0.5v20.3
		c0,0.2,0,0.3,0,0.5c0,0.1,0,0.2,0,0.4c0,0.2,0,0.5-0.1,0.7c0,0.2-0.1,0.4-0.2,0.5c-0.1,0.2-0.2,0.3-0.3,0.4s-0.3,0.2-0.4,0.3
		C48.3,29,48.2,29,48,29.1c-0.2,0.1-0.5,0.1-0.7,0.1c-0.1,0-0.2,0-0.4,0s-0.3,0-0.5,0H10.3l0,0c-0.1,0-0.3,0-0.5,0
		c-0.1,0-0.2,0-0.4,0s-0.5,0-0.7-0.1c-0.2,0-0.4-0.1-0.5-0.2c-0.2-0.1-0.3-0.2-0.4-0.3c-0.1-0.1-0.2-0.3-0.3-0.4
		c-0.1-0.2-0.1-0.3-0.2-0.5c-0.1-0.2-0.1-0.5-0.1-0.8c0-0.1,0-0.2,0-0.4V26v-0.1V5.7V5.6V5.3c0-0.1,0-0.2,0-0.4s0-0.5,0.1-0.7
		c0-0.2,0.1-0.4,0.2-0.5c0.1-0.2,0.2-0.3,0.3-0.4C7.9,3.2,8.1,3.1,8.2,3c0.1-0.1,0.3-0.1,0.5-0.2c0.2-0.1,0.5-0.1,0.7-0.1
		c0.1,0,0.2,0,0.4,0h0.5H46.4"/>
	<g>
		<path class="st1" d="M28.2,10.4l-2.4,11H23l2.4-11H28.2L28.2,10.4z M40.2,17.5l1.5-4.1l0.9,4.1H40.2L40.2,17.5z M43.4,21.3H46
			l-2.3-11h-2.4c-0.6,0-1,0.3-1.2,0.8l-4.3,10.2h3l0.6-1.7h3.7L43.4,21.3L43.4,21.3z M35.9,17.8c0-2.9-4-3.1-4-4.4
			c0-0.4,0.4-0.8,1.2-0.9c0.4-0.1,1.5-0.1,2.8,0.5l0.5-2.3c-0.7-0.2-1.6-0.5-2.7-0.5c-2.8,0-4.8,1.5-4.8,3.6c0,1.6,1.4,2.5,2.5,3
			c1.1,0.6,1.5,0.9,1.5,1.4c0,0.7-0.9,1.1-1.7,1.1c-1.4,0-2.3-0.4-2.9-0.7L27.8,21c0.7,0.3,1.9,0.6,3.2,0.6
			C34,21.6,35.9,20.1,35.9,17.8 M24.1,10.4l-4.7,11h-3l-2.3-8.8c-0.2-0.6-0.2-0.7-0.7-1c-0.7-0.4-1.8-0.7-2.8-1l0.1-0.3h4.9
			c0.6,0,1.2,0.4,1.3,1.1l1.2,6.4l3-7.5L24.1,10.4L24.1,10.4z"/>
	</g>
</g>
<g>
	<path id="XMLID_10_" d="M95,1.8H58.8c-0.2,0-0.3,0-0.5,0c-0.1,0-0.3,0-0.4,0c-0.3,0-0.6,0-0.8,0.1C56.8,2,56.6,2,56.3,2.2
		c-0.2,0.1-0.5,0.3-0.7,0.5s-0.4,0.4-0.5,0.7c-0.1,0.2-0.2,0.5-0.3,0.8c-0.1,0.3-0.1,0.6-0.1,0.8c0,0.1,0,0.3,0,0.4
		c0,0.2,0,0.3,0,0.5v20.3c0,0.2,0,0.3,0,0.5c0,0.1,0,0.3,0,0.4c0,0.3,0,0.6,0.1,0.8c0.1,0.3,0.1,0.5,0.3,0.8
		c0.1,0.2,0.3,0.5,0.5,0.7c0.2,0.2,0.4,0.4,0.7,0.5c0.2,0.1,0.5,0.2,0.8,0.3s0.6,0.1,0.8,0.1c0.1,0,0.3,0,0.4,0c0.2,0,0.3,0,0.5,0
		H95c0.2,0,0.3,0,0.5,0c0.1,0,0.3,0,0.4,0c0.3,0,0.6,0,0.8-0.1c0.3-0.1,0.5-0.1,0.8-0.3c0.2-0.1,0.5-0.3,0.7-0.5
		c0.2-0.2,0.4-0.4,0.5-0.7c0.1-0.2,0.2-0.5,0.3-0.8s0.1-0.6,0.1-0.8c0-0.1,0-0.3,0-0.4c0-0.2,0-0.3,0-0.5V5.7c0-0.2,0-0.3,0-0.5
		c0-0.1,0-0.3,0-0.4c0-0.3,0-0.6-0.1-0.8c-0.1-0.3-0.1-0.5-0.3-0.8c-0.1-0.2-0.3-0.5-0.5-0.7c-0.2-0.2-0.3-0.3-0.6-0.4
		c-0.2-0.1-0.5-0.2-0.8-0.3c-0.3-0.1-0.6-0.1-0.8-0.1c-0.1,0-0.4,0-0.5,0C95.2,1.9,95.1,1.8,95,1.8L95,1.8z"/>
	<path id="XMLID_9_" class="st0" d="M95,2.7h0.5c0.1,0,0.2,0,0.4,0c0.2,0,0.5,0,0.7,0.1c0.2,0,0.4,0.1,0.5,0.2s0.3,0.2,0.4,0.3
		s0.2,0.3,0.3,0.4C97.9,3.8,97.9,4,98,4.2c0.1,0.2,0.1,0.5,0.1,0.7c0,0.1,0,0.2,0,0.4s0,0.3,0,0.5v20.3c0,0.2,0,0.3,0,0.5
		c0,0.1,0,0.2,0,0.4c0,0.2,0,0.5-0.1,0.7c0,0.2-0.1,0.4-0.2,0.5c-0.1,0.2-0.2,0.3-0.3,0.4s-0.3,0.2-0.4,0.3
		c-0.2,0.1-0.3,0.1-0.5,0.2c-0.2,0.1-0.5,0.1-0.7,0.1c-0.1,0-0.2,0-0.4,0c-0.2,0-0.3,0-0.5,0H58.8l0,0c-0.1,0-0.3,0-0.5,0
		c-0.1,0-0.2,0-0.4,0s-0.5,0-0.7-0.1c-0.2,0-0.4-0.1-0.5-0.2c-0.2-0.1-0.3-0.2-0.4-0.3c-0.1-0.1-0.2-0.3-0.3-0.4
		c-0.1-0.2-0.1-0.3-0.2-0.5c-0.1-0.2-0.1-0.5-0.1-0.7c0-0.1,0-0.2,0-0.4v-0.5V26V5.7V5.6V5.3c0-0.1,0-0.2,0-0.4s0-0.5,0.1-0.7
		c0-0.2,0.1-0.4,0.2-0.5c0.1-0.1,0.2-0.3,0.3-0.4c0.1-0.1,0.3-0.2,0.4-0.3c0.1-0.1,0.3-0.1,0.5-0.2c0.2-0.1,0.5-0.1,0.7-0.1
		c0.1,0,0.2,0,0.4,0h0.5L95,2.7"/>
	<g>
		<rect x="72.3" y="8.3" class="st2" width="9.2" height="15.1"/>
		<g>
			<path class="st3" d="M73.2,15.8c0-2.9,1.4-5.7,3.7-7.5C72.7,5,66.7,5.7,63.5,9.9c-3.2,4.2-2.6,10.2,1.6,13.4
				c3.5,2.7,8.4,2.7,11.8,0C74.6,21.6,73.2,18.8,73.2,15.8z"/>
			<path class="st4" d="M91.5,21.8v-0.3h0.1v-0.1h-0.3v0.1h0.1L91.5,21.8L91.5,21.8z M92.1,21.8v-0.4H92l-0.1,0.3l-0.1-0.3h-0.1v0.4
				h0.1v-0.3l0.1,0.2L92.1,21.8v-0.3V21.8L92.1,21.8z"/>
			<path class="st4" d="M92.4,15.8c0,5.3-4.3,9.6-9.6,9.6c-2.2,0-4.2-0.7-5.9-2c4.2-3.3,4.9-9.3,1.6-13.4c-0.5-0.6-1-1.1-1.6-1.6
				c4.2-3.3,10.2-2.6,13.5,1.6C91.7,11.6,92.4,13.7,92.4,15.8L92.4,15.8z"/>
		</g>
	</g>
</g>
<g>
	<path id="XMLID_14_" d="M193.1,1.5h-36.2c-0.2,0-0.3,0-0.5,0c-0.1,0-0.3,0-0.4,0c-0.3,0-0.6,0-0.8,0.1c-0.3,0.1-0.5,0.1-0.8,0.3
		c-0.2,0.1-0.5,0.3-0.7,0.5s-0.4,0.4-0.5,0.7c-0.1,0.2-0.2,0.5-0.3,0.8c-0.1,0.3-0.1,0.6-0.1,0.8c0,0.1,0,0.3,0,0.4
		c0,0.2,0,0.3,0,0.5v20.3c0,0.2,0,0.3,0,0.5c0,0.1,0,0.3,0,0.4c0,0.3,0,0.6,0.1,0.8c0.1,0.3,0.1,0.5,0.3,0.8
		c0.1,0.2,0.3,0.5,0.5,0.7s0.4,0.4,0.7,0.5c0.2,0.1,0.5,0.2,0.8,0.3s0.6,0.1,0.8,0.1c0.1,0,0.3,0,0.4,0c0.2,0,0.3,0,0.5,0h36.2
		c0.2,0,0.3,0,0.5,0c0.1,0,0.3,0,0.4,0c0.3,0,0.6,0,0.8-0.1c0.3-0.1,0.5-0.1,0.8-0.3c0.2-0.1,0.5-0.3,0.7-0.5
		c0.2-0.2,0.4-0.4,0.5-0.7c0.1-0.2,0.2-0.5,0.3-0.8s0.1-0.6,0.1-0.8c0-0.1,0-0.3,0-0.4c0-0.2,0-0.3,0-0.5V5.4c0-0.2,0-0.3,0-0.5
		c0-0.1,0-0.3,0-0.4c0-0.3,0-0.6-0.1-0.8c-0.1-0.3-0.1-0.5-0.3-0.8c-0.1-0.2-0.3-0.5-0.5-0.7s-0.4-0.4-0.7-0.5
		c-0.2-0.1-0.5-0.2-0.8-0.3s-0.6-0.1-0.8-0.1c-0.1,0-0.3,0-0.4,0C193.4,1.5,193.2,1.5,193.1,1.5L193.1,1.5z"/>
	<path id="XMLID_13_" class="st0" d="M193.1,2.4h0.5c0.1,0,0.2,0,0.4,0s0.5,0,0.7,0.1c0.2,0,0.4,0.1,0.5,0.2
		c0.2,0.1,0.3,0.2,0.4,0.3c0.1,0.1,0.2,0.3,0.3,0.4c0.1,0.1,0.1,0.3,0.2,0.5c0.1,0.2,0.1,0.5,0.1,0.7c0,0.1,0,0.2,0,0.4s0,0.3,0,0.5
		v20.3c0,0.2,0,0.3,0,0.5c0,0.1,0,0.2,0,0.4c0,0.2,0,0.5-0.1,0.7c0,0.2-0.1,0.4-0.2,0.5c-0.1,0.2-0.2,0.3-0.3,0.4s-0.3,0.2-0.4,0.3
		c-0.2,0.1-0.3,0.1-0.5,0.2s-0.5,0.1-0.7,0.1c-0.1,0-0.2,0-0.4,0s-0.3,0-0.5,0h-36.2l0,0c-0.1,0-0.3,0-0.5,0c-0.1,0-0.2,0-0.4,0
		c-0.2,0-0.5,0-0.7-0.1c-0.2,0-0.4-0.1-0.5-0.2c-0.2-0.1-0.3-0.2-0.4-0.3c-0.1-0.1-0.2-0.3-0.3-0.4c-0.1-0.2-0.1-0.3-0.2-0.5
		c-0.1-0.2-0.1-0.5-0.1-0.7c0-0.1,0-0.2,0-0.4v-0.5v-0.1V5.4V5.3V5c0-0.1,0-0.2,0-0.4s0-0.5,0.1-0.7c0-0.2,0.1-0.4,0.2-0.5
		c0.1-0.1,0.2-0.3,0.3-0.4s0.3-0.2,0.4-0.3c0.1-0.1,0.3-0.1,0.5-0.2s0.5-0.1,0.7-0.1c0.1,0,0.2,0,0.4,0h0.5L193.1,2.4"/>
	<g>
		<rect x="170.4" y="8" class="st5" width="9.2" height="15.1"/>
		<g>
			<path class="st3" d="M171.3,15.5c0-2.9,1.4-5.7,3.7-7.5c-4.2-3.3-10.2-2.6-13.4,1.6c-3.2,4.2-2.6,10.2,1.6,13.4
				c3.5,2.7,8.4,2.7,11.8,0C172.7,21.3,171.3,18.5,171.3,15.5z"/>
			<path class="st6" d="M189.6,21.5v-0.3h0.1v-0.1h-0.3v0.1h0.1L189.6,21.5L189.6,21.5z M190.2,21.5v-0.4h-0.1l-0.1,0.3l-0.1-0.3
				h-0.1v0.4h0.1v-0.3l0.1,0.2L190.2,21.5v-0.3V21.5L190.2,21.5z"/>
			<path class="st6" d="M190.5,15.5c0,5.3-4.3,9.6-9.6,9.6c-2.2,0-4.2-0.7-5.9-2c4.2-3.3,4.9-9.3,1.6-13.4c-0.5-0.6-1-1.1-1.6-1.6
				c4.2-3.3,10.2-2.6,13.5,1.6C189.8,11.3,190.5,13.4,190.5,15.5L190.5,15.5z"/>
		</g>
	</g>
</g>
<g>
	<path id="XMLID_8_" d="M291,1.5h-36.2c-0.2,0-0.3,0-0.5,0c-0.1,0-0.3,0-0.4,0c-0.3,0-0.6,0-0.8,0.1c-0.3,0.1-0.5,0.1-0.8,0.3
		c-0.2,0.1-0.5,0.3-0.7,0.5s-0.4,0.4-0.5,0.7c-0.1,0.2-0.2,0.5-0.3,0.8s-0.1,0.6-0.1,0.8c0,0.1,0,0.3,0,0.4c0,0.2,0,0.3,0,0.5v20.3
		c0,0.2,0,0.3,0,0.5c0,0.1,0,0.3,0,0.4c0,0.3,0,0.6,0.1,0.8c0.1,0.3,0.1,0.5,0.3,0.8c0.1,0.2,0.3,0.5,0.5,0.7s0.4,0.4,0.7,0.5
		c0.2,0.1,0.5,0.2,0.8,0.3s0.6,0.1,0.8,0.1c0.1,0,0.3,0,0.4,0c0.2,0,0.3,0,0.5,0H291c0.2,0,0.3,0,0.5,0c0.1,0,0.3,0,0.4,0
		c0.3,0,0.6,0,0.8-0.1c0.3-0.1,0.5-0.1,0.8-0.3c0.2-0.1,0.5-0.3,0.7-0.5c0.2-0.2,0.4-0.4,0.5-0.7c0.1-0.2,0.2-0.5,0.3-0.8
		s0.1-0.6,0.1-0.8c0-0.1,0-0.3,0-0.4c0-0.2,0-0.3,0-0.5V5.5c0-0.2,0-0.3,0-0.5c0-0.1,0-0.3,0-0.4c0-0.3,0-0.6-0.1-0.8
		s-0.1-0.5-0.3-0.8c-0.1-0.2-0.3-0.5-0.5-0.7c-0.2-0.2-0.4-0.4-0.7-0.5c-0.3-0.1-0.5-0.1-0.8-0.2c-0.3-0.1-0.6-0.1-0.8-0.1
		c-0.1,0-0.3,0-0.4,0C291.3,1.5,291.2,1.5,291,1.5L291,1.5z"/>
	<path id="XMLID_7_" class="st0" d="M291,2.5h0.5c0.1,0,0.2,0,0.4,0c0.2,0,0.5,0,0.7,0.1c0.2,0,0.4,0.1,0.5,0.2
		c0.1,0.1,0.3,0.2,0.4,0.3c0.1,0.1,0.2,0.3,0.3,0.4c0.1,0.2,0.1,0.3,0.2,0.5c0.1,0.2,0.1,0.5,0.1,0.7c0,0.1,0,0.2,0,0.4s0,0.3,0,0.5
		v20.3c0,0.2,0,0.3,0,0.5c0,0.1,0,0.2,0,0.4c0,0.2,0,0.5-0.1,0.7c0,0.2-0.1,0.4-0.2,0.5c-0.1,0.2-0.2,0.3-0.3,0.4s-0.3,0.2-0.4,0.3
		c-0.1,0.1-0.3,0.1-0.5,0.2c-0.2,0.1-0.5,0.1-0.7,0.1c-0.1,0-0.2,0-0.4,0c-0.2,0-0.3,0-0.5,0h-36.2l0,0c-0.1,0-0.3,0-0.5,0
		c-0.1,0-0.2,0-0.4,0s-0.5,0-0.7-0.1c-0.2,0-0.4-0.1-0.5-0.2c-0.2-0.1-0.3-0.2-0.4-0.3c-0.1-0.1-0.2-0.3-0.3-0.4
		c-0.1-0.2-0.1-0.3-0.2-0.5s-0.1-0.5-0.1-0.7c0-0.1,0-0.2,0-0.4v-0.3v-0.4V5.5V5.4V5c0-0.1,0-0.2,0-0.4s0-0.5,0.1-0.7
		c0-0.2,0.1-0.4,0.2-0.5c0.1-0.2,0.2-0.3,0.3-0.4c0.1-0.1,0.3-0.2,0.4-0.3c0.1-0.1,0.3-0.1,0.5-0.2s0.5-0.1,0.7-0.1
		c0.1,0,0.2,0,0.4,0h0.5L291,2.5"/>
	<g>
		<path class="st7" d="M261,17.3h-2.4c-0.2,0-0.3,0.1-0.3,0.3l-1,6.3c0,0.1,0.1,0.2,0.2,0.2l0,0h1.2c0.2,0,0.3-0.1,0.3-0.3l0.3-1.7
			c0-0.2,0.2-0.3,0.3-0.3h0.8c1.6,0,2.6-0.8,2.8-2.3c0.1-0.7,0-1.2-0.3-1.6C262.4,17.4,261.8,17.3,261,17.3z M261.3,19.5
			c-0.1,0.9-0.8,0.9-1.5,0.9h-0.3l0.3-1.7c0-0.1,0.1-0.2,0.2-0.2h0.2c0.5,0,0.9,0,1.1,0.2C261.3,19.1,261.3,19.3,261.3,19.5z
			 M268.3,19.5h-1.2c-0.1,0-0.2,0.1-0.2,0.2l-0.1,0.3l-0.1-0.1c-0.3-0.4-0.8-0.5-1.4-0.5c-1.3,0-2.4,1-2.6,2.4
			c-0.1,0.7,0.1,1.4,0.4,1.8s0.9,0.6,1.5,0.6c1,0,1.6-0.7,1.6-0.7l-0.1,0.3c0,0.1,0.1,0.2,0.2,0.2l0,0h1.1c0.2,0,0.3-0.1,0.3-0.3
			l0.6-4C268.5,19.7,268.5,19.5,268.3,19.5L268.3,19.5z M266.7,21.9c-0.1,0.7-0.6,1.1-1.3,1.1c-0.3,0-0.6-0.1-0.8-0.3
			c-0.2-0.2-0.2-0.5-0.2-0.8c0.1-0.7,0.6-1.1,1.3-1.1c0.3,0,0.6,0.1,0.8,0.3C266.7,21.3,266.7,21.5,266.7,21.9z M274.6,19.5h-1.2
			c-0.1,0-0.2,0.1-0.3,0.2l-1.6,2.4l-0.7-2.3c-0.1-0.1-0.2-0.2-0.3-0.2h-1.2c-0.1,0-0.2,0.1-0.2,0.2v0.1l1.3,3.8l-1.2,1.7
			c-0.1,0.1-0.1,0.2,0.1,0.3h0.1h1.2c0.1,0,0.2-0.1,0.3-0.1l3.9-5.7C274.7,19.8,274.7,19.7,274.6,19.5L274.6,19.5L274.6,19.5z"/>
		<path class="st8" d="M278.5,17.3h-2.4c-0.2,0-0.3,0.1-0.3,0.3l-1,6.3c0,0.1,0.1,0.2,0.2,0.2l0,0h1.3c0.1,0,0.2-0.1,0.2-0.2
			l0.3-1.8c0-0.2,0.2-0.3,0.3-0.3h0.8c1.6,0,2.6-0.8,2.8-2.3c0.1-0.7,0-1.2-0.3-1.6C279.9,17.4,279.3,17.3,278.5,17.3z M278.7,19.5
			c-0.1,0.9-0.8,0.9-1.5,0.9h-0.4l0.3-1.7c0-0.1,0.1-0.2,0.2-0.2h0.2c0.5,0,0.9,0,1.1,0.2C278.8,19.1,278.8,19.3,278.7,19.5z
			 M285.8,19.5h-1.2c-0.1,0-0.2,0.1-0.2,0.2l-0.1,0.3l-0.1-0.1c-0.3-0.4-0.8-0.5-1.4-0.5c-1.3,0-2.4,1-2.6,2.4
			c-0.1,0.7,0.1,1.4,0.4,1.8s0.9,0.6,1.5,0.6c1,0,1.6-0.7,1.6-0.7l-0.1,0.3c0,0.1,0.1,0.2,0.2,0.2l0,0h1.1c0.2,0,0.3-0.1,0.3-0.3
			l0.6-4C286,19.7,286,19.5,285.8,19.5L285.8,19.5z M284.1,21.9c-0.1,0.7-0.6,1.1-1.3,1.1c-0.3,0-0.6-0.1-0.8-0.3
			c-0.2-0.2-0.2-0.5-0.2-0.8c0.1-0.7,0.6-1.1,1.3-1.1c0.3,0,0.6,0.1,0.8,0.3C284.1,21.3,284.2,21.5,284.1,21.9z M287.2,17.4l-1,6.4
			c0,0.1,0.1,0.2,0.2,0.2l0,0h1c0.2,0,0.3-0.1,0.3-0.3l1-6.3c0-0.1-0.1-0.2-0.2-0.2l0,0h-1.1C287.3,17.3,287.2,17.4,287.2,17.4z"/>
	</g>
	<g>
		<path class="st7" d="M271.1,15.3l0.2-1.1h-0.4h-1.8l1.3-8.1c0-0.1,0.1-0.1,0.1-0.1h3.1c1,0,1.7,0.2,2.1,0.6
			c0.2,0.2,0.3,0.4,0.3,0.6c0.1,0.2,0.1,0.5,0,0.9l0,0v0.2l0.2,0.1c0.1,0.1,0.2,0.2,0.3,0.3c0.2,0.2,0.2,0.4,0.3,0.6
			c0.1,0.3,0,0.6-0.1,0.9c-0.1,0.4-0.2,0.8-0.4,1.1c-0.2,0.3-0.3,0.5-0.6,0.7c-0.2,0.2-0.5,0.3-0.8,0.4c-0.3,0.1-0.6,0.1-1,0.1h-0.2
			c-0.2,0-0.3,0.1-0.5,0.2c-0.1,0.1-0.2,0.3-0.2,0.5v0.1l-0.3,1.9v0.1c0,0,0,0,0,0.1l0,0C272.6,15.3,271.1,15.3,271.1,15.3z"/>
		<path class="st8" d="M276.3,8.2c0,0.1,0,0.1,0,0.2c-0.4,2.1-1.8,2.8-3.6,2.8h-0.9c-0.2,0-0.4,0.2-0.4,0.4l-0.5,3l-0.1,0.9
			c0,0.1,0.1,0.2,0.2,0.3l0,0h1.6c0.2,0,0.3-0.1,0.4-0.3v-0.2l0.3-1.9v-0.1c0-0.2,0.2-0.3,0.4-0.3h0.2c1.6,0,2.8-0.6,3.1-2.5
			c0.2-0.8,0.1-1.4-0.3-1.9C276.7,8.4,276.5,8.3,276.3,8.2z"/>
		<path class="st9" d="M275.9,8c-0.1,0-0.3-0.1-0.4-0.1c-0.3-0.1-0.5-0.1-0.8-0.1h-2.4c-0.2,0-0.3,0.1-0.4,0.3l-0.5,3.3v0.1
			c0-0.2,0.2-0.4,0.4-0.4h0.9c1.8,0,3.2-0.7,3.6-2.8c0-0.1,0-0.1,0-0.2C276.2,8.1,276.1,8.1,275.9,8C276,8,275.9,8,275.9,8z"/>
		<path class="st7" d="M271.9,8.2c0-0.2,0.2-0.3,0.4-0.3h2.4c0.3,0,0.6,0,0.8,0.1c0.2,0,0.3,0.1,0.5,0.1c0.1,0.1,0.2,0.1,0.3,0.1
			c0.1-0.8,0-1.3-0.4-1.8c-0.5-0.5-1.3-0.7-2.4-0.7h-3.1c-0.2,0-0.4,0.2-0.4,0.4l-1.3,8.2c0,0.1,0.1,0.3,0.2,0.3c0,0,0,0,0.1,0h1.9
			l0.5-3.1C271.4,11.4,271.9,8.2,271.9,8.2z"/>
	</g>
</g>
<g>
	<path id="XMLID_6_" d="M242,1.4h-36.2c-0.2,0-0.3,0-0.5,0c-0.1,0-0.3,0-0.4,0c-0.3,0-0.6,0-0.8,0.1s-0.5,0.1-0.8,0.3
		c-0.2,0.1-0.5,0.3-0.7,0.5s-0.4,0.4-0.5,0.7c-0.1,0.2-0.2,0.5-0.3,0.8s-0.1,0.6-0.1,0.8c0,0.1,0,0.3,0,0.4c0,0.2,0,0.3,0,0.5v20.3
		c0,0.2,0,0.3,0,0.5c0,0.1,0,0.3,0,0.4c0,0.3,0,0.6,0.1,0.8c0.1,0.3,0.1,0.5,0.3,0.8c0.1,0.2,0.3,0.5,0.5,0.7s0.4,0.4,0.7,0.5
		c0.2,0.1,0.5,0.2,0.8,0.3s0.6,0.1,0.8,0.1c0.1,0,0.3,0,0.4,0c0.2,0,0.3,0,0.5,0H242c0.2,0,0.3,0,0.5,0c0.1,0,0.3,0,0.4,0
		c0.3,0,0.6,0,0.8-0.1s0.5-0.1,0.8-0.3c0.2-0.1,0.5-0.3,0.7-0.5c0.2-0.2,0.4-0.4,0.5-0.7c0.1-0.2,0.2-0.5,0.3-0.8s0.1-0.6,0.1-0.8
		c0-0.1,0-0.3,0-0.4c0-0.2,0-0.3,0-0.5V5.4c0-0.2,0-0.3,0-0.5c0-0.1,0-0.3,0-0.4c0-0.3,0-0.6-0.1-0.8s-0.1-0.5-0.3-0.8
		c-0.1-0.2-0.3-0.5-0.5-0.7s-0.4-0.4-0.7-0.5c-0.2-0.1-0.5-0.2-0.8-0.3s-0.6-0.1-0.8-0.1c-0.1,0-0.3,0-0.4,0
		C242.3,1.4,242.1,1.4,242,1.4L242,1.4z"/>
	<path id="XMLID_5_" class="st0" d="M242,2.4h0.5c0.1,0,0.2,0,0.4,0s0.5,0,0.7,0.1c0.2,0,0.4,0.1,0.5,0.2c0.2,0.1,0.3,0.2,0.4,0.3
		c0.1,0.1,0.2,0.3,0.3,0.4c0.1,0.2,0.1,0.3,0.2,0.5c0.1,0.2,0.1,0.5,0.1,0.7c0,0.1,0,0.2,0,0.4s0,0.3,0,0.5v20.3c0,0.2,0,0.3,0,0.5
		c0,0.1,0,0.2,0,0.4c0,0.2,0,0.5-0.1,0.7c0,0.2-0.1,0.4-0.2,0.5c-0.1,0.2-0.2,0.3-0.3,0.4s-0.3,0.2-0.4,0.3
		c-0.2,0.1-0.3,0.1-0.5,0.2s-0.5,0.1-0.7,0.1c-0.1,0-0.2,0-0.4,0s-0.3,0-0.5,0h-36.2l0,0c-0.1,0-0.3,0-0.5,0c-0.1,0-0.2,0-0.4,0
		s-0.5,0-0.7-0.1c-0.2,0-0.4-0.1-0.5-0.2c-0.2-0.1-0.3-0.2-0.4-0.3c-0.1-0.1-0.2-0.3-0.3-0.4c-0.1-0.2-0.1-0.3-0.2-0.5
		s-0.1-0.5-0.1-0.7c0-0.1,0-0.2,0-0.4V26v-0.2V5.4V5.3V4.9c0-0.1,0-0.2,0-0.4s0-0.5,0.1-0.7c0-0.2,0.1-0.4,0.2-0.5
		c0.1-0.2,0.2-0.3,0.3-0.4c0.1-0.1,0.3-0.2,0.4-0.3c0.2-0.1,0.3-0.1,0.5-0.2c0.2-0.1,0.5-0.1,0.7-0.1c0.1,0,0.2,0,0.4,0h0.5L242,2.4
		"/>
	<g id="g4155">
		<g id="g4161" transform="translate(302.4478,424.6084)">
			<path id="path4163" class="st10" d="M-78.8-414.6l-2.4,11H-84l2.4-11H-78.8z M-66.8-407.4l1.5-4.1l0.9,4.1H-66.8z M-63.6-403.6
				h2.6l-2.3-11h-2.4c-0.6,0-1,0.3-1.2,0.8l-4.3,10.2h3l0.6-1.7h3.6C-63.9-405.2-63.6-403.6-63.6-403.6z M-71-407.1
				c0-2.9-4-3.1-4-4.4c0-0.4,0.4-0.8,1.2-0.9c0.4-0.1,1.5-0.1,2.8,0.5l0.5-2.3c-0.7-0.2-1.6-0.5-2.7-0.5c-2.8,0-4.8,1.5-4.8,3.6
				c0,1.6,1.4,2.5,2.5,3s1.5,0.9,1.5,1.4c0,0.7-0.9,1.1-1.7,1.1c-1.4,0-2.3-0.4-2.9-0.7l-0.5,2.4c0.7,0.3,1.9,0.6,3.2,0.6
				C-73-403.4-71-405-71-407.1 M-82.8-414.6l-4.6,11h-3l-2.3-8.8c-0.1-0.5-0.3-0.7-0.7-1c-0.7-0.4-1.8-0.7-2.8-0.9l0.1-0.3h4.8
				c0.6,0,1.2,0.4,1.3,1.1l1.2,6.4l3-7.5L-82.8-414.6L-82.8-414.6z"/>
		</g>
		<g id="g4165" transform="translate(318.6445,362.2266)">
			<path id="path4167" class="st10" d="M-91.3-338.1h-1.2v1.1h1.3v0.3h-1.7v-3h1.6v0.3h-1.2v0.9h1.2L-91.3-338.1L-91.3-338.1z"/>
		</g>
		<path id="path4169" class="st10" d="M228.1,22.4h0.4v3.1h-0.4V22.4z"/>
		<g id="g4171" transform="translate(333.0977,361.6953)">
			<path id="path4173" class="st10" d="M-102.5-337.6c0-0.2-0.1-0.6-0.5-0.6s-0.6,0.4-0.6,0.6H-102.5z M-103.7-337.2
				c0,0.5,0.3,0.7,0.7,0.7c0.3,0,0.5-0.1,0.6-0.1l0.1,0.3c-0.1,0.1-0.4,0.1-0.7,0.1c-0.7,0-1.1-0.4-1.1-1.1s0.4-1.1,1-1.1
				c0.7,0,0.9,0.6,0.9,1c0,0.1,0,0.1,0,0.2H-103.7z"/>
		</g>
		<g id="g4175" transform="translate(344.2041,356.3369)">
			<path id="path4177" class="st10" d="M-111.1-331c-0.1,0.1-0.3,0.1-0.6,0.1c-0.6,0-1.1-0.4-1.1-1.1s0.5-1.1,1.1-1.1
				c0.2,0,0.4,0.1,0.5,0.1l-0.1,0.3c-0.1-0.1-0.2-0.1-0.5-0.1c-0.5,0-0.7,0.4-0.7,0.8c0,0.5,0.3,0.8,0.7,0.8c0.2,0,0.4-0.1,0.5-0.1
				L-111.1-331z"/>
		</g>
		<g id="g4179" transform="translate(349.0664,367.8213)">
			<path id="path4181" class="st10" d="M-114.9-345.1v0.5h0.6v0.3h-0.6v1.2c0,0.3,0.1,0.4,0.3,0.4c0.1,0,0.2,0,0.2,0v0.3
				c-0.1,0-0.2,0.1-0.3,0.1c-0.2,0-0.3-0.1-0.4-0.2c-0.1-0.1-0.2-0.3-0.2-0.6v-1.2h-0.3v-0.3h0.3v-0.4L-114.9-345.1z"/>
		</g>
		<g id="g4183" transform="translate(353.9688,362.5615)">
			<path id="path4185_1_" class="st10" d="M-118.7-339.2h0.3v0.4l0,0c0.1-0.3,0.3-0.5,0.6-0.5c0.1,0,0.1,0,0.1,0v0.4
				c-0.1,0-0.1,0-0.1,0c-0.3,0-0.5,0.2-0.5,0.5c0,0.1,0,0.1,0,0.2v1.1h-0.4v-1.5"/>
		</g>
		<g id="g4187" transform="translate(361.7861,360.749)">
			<path id="path4189" class="st10" d="M-124.7-336.3c0,0.5,0.3,0.8,0.6,0.8c0.4,0,0.6-0.3,0.6-0.8c0-0.4-0.2-0.8-0.6-0.8
				C-124.5-337.2-124.7-336.7-124.7-336.3 M-123-336.4c0,0.8-0.6,1.1-1.1,1.1c-0.6,0-1-0.4-1-1.1s0.5-1.1,1.1-1.1
				C-123.5-337.4-123-337.1-123-336.4"/>
		</g>
		<g id="g4191" transform="translate(371.9873,362.9561)">
			<path id="path4193_1_" class="st10" d="M-132.7-339.6h0.4v0.3l0,0c0.1-0.2,0.3-0.4,0.7-0.4c0.3,0,0.7,0.2,0.7,0.9v1.3h-0.4v-1.2
				c0-0.3-0.1-0.6-0.5-0.6c-0.3,0-0.5,0.2-0.5,0.4c0,0.1,0,0.1,0,0.2v1.3h-0.4v-1.5"/>
		</g>
	</g>
</g>
<g>
	<path id="XMLID_16_" class="st11" d="M143.8,1.9h-35.7c-0.2,0-0.3,0-0.5,0c-0.1,0-0.3,0-0.4,0c-0.3,0-0.6,0-0.8,0.1
		c-0.3,0.1-0.5,0.1-0.8,0.3c-0.2,0.1-0.5,0.3-0.7,0.5c-0.2,0.2-0.4,0.4-0.5,0.7c-0.1,0.2-0.2,0.5-0.3,0.8c-0.1,0.3-0.1,0.6-0.1,0.8
		c0,0.1,0,0.3,0,0.4c0,0.2,0,0.3,0,0.5v20c0,0.2,0,0.3,0,0.5c0,0.1,0,0.3,0,0.4c0,0.3,0,0.6,0.1,0.8c0.1,0.2,0.1,0.5,0.3,0.8
		c0.1,0.2,0.3,0.5,0.5,0.7c0.2,0.2,0.4,0.4,0.7,0.5c0.2,0.1,0.5,0.2,0.8,0.3c0.3,0.1,0.6,0.1,0.8,0.1c0.1,0,0.3,0,0.4,0
		c0.2,0,0.3,0,0.5,0h35.7c0.2,0,0.3,0,0.5,0c0.1,0,0.3,0,0.4,0c0.3,0,0.6,0,0.8-0.1c0.3-0.1,0.5-0.1,0.8-0.3
		c0.2-0.1,0.5-0.3,0.7-0.5c0.2-0.2,0.4-0.4,0.5-0.7c0.1-0.2,0.2-0.5,0.3-0.8c0.1-0.3,0.1-0.6,0.1-0.8c0-0.1,0-0.3,0-0.4
		c0-0.2,0-0.3,0-0.5V5.7c0-0.2,0-0.3,0-0.5c0-0.1,0-0.3,0-0.4c0-0.3,0-0.6-0.1-0.8c-0.1-0.2-0.1-0.5-0.3-0.8
		c-0.1-0.2-0.3-0.5-0.5-0.7c-0.2-0.2-0.4-0.4-0.7-0.5c-0.2-0.1-0.5-0.2-0.8-0.3s-0.6-0.1-0.8-0.1c-0.1,0-0.3,0-0.4,0
		C144.1,1.9,144,1.9,143.8,1.9L143.8,1.9z"/>
	<g>
		<polygon class="st0" points="144.9,24.7 125.6,24.7 106.9,24.7 106.9,15.1 106.9,5.8 125.9,5.8 144.9,5.8 144.9,15.2 		"/>
		<path class="st11" d="M130.9,23.2l-0.8-1v1h-2.5v-1.6c-0.3,0.2-0.7,0.2-1.1,0.2h-0.9v1.4h-3.8l-0.7-0.9l-0.7,0.9h-6.3v-6h6.4
			l0.7,0.9l0.7-0.9H145V1.8h-38.2v10.9l1.5-3.3h2.4l0.8,1.9V9.5h3.1l0.5,1.4l0.5-1.4h13.9v0.7c0.5-0.5,1.2-0.7,2-0.7h4.4l0.8,1.9
			V9.5h2.6l0.7,1.1V9.5h2.6v6h-2.6l-0.7-1.1v1.1h-3.8l-0.4-0.9h-1l-0.4,0.9h-2.3c-0.8,0-1.5-0.2-1.9-0.7v0.7h-3.9l-0.8-1v1h-14.4
			l-0.4-0.9h-1l-0.4,0.9h-1.8v14.3h38.2v-6.8c-0.4,0.3-0.9,0.5-1.5,0.5L130.9,23.2L130.9,23.2z"/>
		<path class="st11" d="M144.5,19l0.5-1h-2.3c-1,0-1.6,0.6-1.6,1.5s0.6,1.4,1.4,1.4h1.1c0.2,0,0.4,0.2,0.4,0.4
			c0,0.2-0.2,0.4-0.4,0.4h-2.3v1h2.3c1,0,1.6-0.6,1.6-1.5c0-0.8-0.5-1.3-1.4-1.3h-1.1c-0.2,0-0.4-0.2-0.4-0.4c0-0.2,0.2-0.4,0.4-0.4
			L144.5,19L144.5,19z M138,19.4c0-0.2,0.2-0.4,0.4-0.4h2l0.5-1h-2.3c-1,0-1.6,0.6-1.6,1.5s0.6,1.4,1.4,1.4h1.1
			c0.2,0,0.4,0.2,0.4,0.4c0,0.2-0.2,0.4-0.4,0.4H137v1h2.3c1,0,1.6-0.6,1.6-1.5c0-0.8-0.5-1.3-1.4-1.3h-1.1
			C138.2,19.8,138,19.6,138,19.4L138,19.4z M132.8,22.5h3.6v-1h-2.5v-0.8h2.4v-1h-2.4V19h2.5v-1h-3.6V22.5L132.8,22.5z M132.7,22.5
			l-1.5-1.7c0.8-0.2,1.2-0.7,1.2-1.4c0-0.9-0.6-1.5-1.6-1.5h-2.5v4.5h1.2V21h0.5l1.4,1.6H132.7L132.7,22.5z M130.8,20h-1.3v-0.9h1.3
			c0.3,0,0.5,0.2,0.5,0.5C131.3,19.7,131.1,20,130.8,20L130.8,20z M128,19.5c0-0.9-0.6-1.5-1.6-1.5h-2.5v4.5h1.2v-1.5h1.4
			C127.3,21.1,128,20.4,128,19.5L128,19.5z M126.8,19.5c0,0.3-0.2,0.5-0.5,0.5H125v-1h1.3C126.6,19,126.8,19.3,126.8,19.5
			L126.8,19.5z M123.8,22.5l-1.9-2.2l1.8-2.2h-1.3l-1.1,1.4l-1.1-1.4h-1.5l1.8,2.2l-1.8,2.2h1.4l1.1-1.4l1.1,1.4L123.8,22.5
			L123.8,22.5z M115.1,22.5h3.6v-1h-2.5v-0.8h2.4v-1h-2.4V19h2.5v-1h-3.6V22.5L115.1,22.5z"/>
		<path class="st11" d="M141.5,14.7v-4.5h-1.2V13l-1.8-2.7h-1.5v4.5h1.2v-2.9l1.9,2.9L141.5,14.7L141.5,14.7z M135.9,14.7h1.3
			l-2-4.5h-1.5l-2,4.5h1.3l0.4-0.9h2.1L135.9,14.7L135.9,14.7z M135.1,12.9h-1.3l0.6-1.6L135.1,12.9L135.1,12.9z M131.4,11.2h1.2v-1
			h-1.3c-1.5,0-2.1,1-2.1,2.2v0.1c0,1.4,0.8,2.2,2.1,2.2h0.1l0.5-1h-0.4c-0.7,0-1.2-0.5-1.2-1.2v-0.1
			C130.3,11.8,130.7,11.2,131.4,11.2L131.4,11.2z M127.5,14.7h1.2v-2.1v-2.2h-1.2v2.2V14.7L127.5,14.7z M127.3,14.7l-1.5-1.7
			c0.8-0.2,1.2-0.7,1.2-1.4c0-0.9-0.6-1.5-1.6-1.5h-2.5v4.5h1.2v-1.6h0.5l1.4,1.6H127.3L127.3,14.7z M125.3,12.2H124v-0.9h1.3
			c0.3,0,0.5,0.2,0.5,0.5C125.9,11.9,125.7,12.2,125.3,12.2L125.3,12.2z M118.7,14.7h3.6v-1h-2.5V13h2.4v-1h-2.4v-0.8h2.5v-1h-3.6
			V14.7L118.7,14.7z M116.8,14.7h1.2v-4.5h-1.8l-1,2.8l-1-2.8h-1.9v4.5h1.2v-3.3l1.2,3.3h1l1.2-3.3L116.8,14.7L116.8,14.7z
			 M111,14.7h1.3l-2-4.5h-1.5l-2,4.5h1.3l0.4-0.9h2.1L111,14.7L111,14.7z M110.2,12.9h-1.3l0.6-1.6L110.2,12.9L110.2,12.9z"/>
	</g>
	<path id="XMLID_15_" class="st12" d="M143.8,1.9h-35.7c-0.2,0-0.3,0-0.5,0c-0.1,0-0.3,0-0.4,0c-0.3,0-0.6,0-0.8,0.1
		c-0.3,0.1-0.5,0.1-0.8,0.3c-0.2,0.1-0.5,0.3-0.7,0.5c-0.2,0.2-0.4,0.4-0.5,0.7c-0.1,0.2-0.2,0.5-0.3,0.8c-0.1,0.3-0.1,0.6-0.1,0.8
		c0,0.1,0,0.3,0,0.4c0,0.2,0,0.3,0,0.5v20c0,0.2,0,0.3,0,0.5c0,0.1,0,0.3,0,0.4c0,0.3,0,0.6,0.1,0.8c0.1,0.2,0.1,0.5,0.3,0.8
		c0.1,0.2,0.3,0.5,0.5,0.7c0.2,0.2,0.4,0.4,0.7,0.5c0.2,0.1,0.5,0.2,0.8,0.3c0.3,0.1,0.6,0.1,0.8,0.1c0.1,0,0.3,0,0.4,0
		c0.2,0,0.3,0,0.5,0h35.7c0.2,0,0.3,0,0.5,0c0.1,0,0.3,0,0.4,0c0.3,0,0.6,0,0.8-0.1c0.3-0.1,0.5-0.1,0.8-0.3
		c0.2-0.1,0.5-0.3,0.7-0.5c0.2-0.2,0.4-0.4,0.5-0.7c0.1-0.2,0.2-0.5,0.3-0.8c0.1-0.3,0.1-0.6,0.1-0.8c0-0.1,0-0.3,0-0.4
		c0-0.2,0-0.3,0-0.5V5.7c0-0.2,0-0.3,0-0.5c0-0.1,0-0.3,0-0.4c0-0.3,0-0.6-0.1-0.8c-0.1-0.2-0.1-0.5-0.3-0.8
		c-0.1-0.2-0.3-0.5-0.5-0.7c-0.2-0.2-0.4-0.4-0.7-0.5C146,2,145.7,2,145.4,1.9c-0.3-0.1-0.6,0-0.8,0c-0.1,0-0.2,0-0.3,0
		C144.1,1.9,144,1.9,143.8,1.9L143.8,1.9z"/>
</g>
<g>
	<path class="st13" d="M441.3,1.7H403c-2,0-3.6,1.6-3.6,3.5v21.2c0,2,1.6,3.5,3.6,3.5h38.3c2,0,3.6-1.6,3.6-3.5V5.2
		C444.8,3.3,443.2,1.7,441.3,1.7z"/>
	<path d="M434.8,13.9l-2.9,6.1h-1.2l1.1-2.3l-1.7-3.8h1.2l1.1,2.5l1.2-2.5C433.5,13.9,434.8,13.9,434.8,13.9z"/>
	<path d="M423.6,16.1c0-0.7-0.5-1.2-1.2-1.2s-1.2,0.5-1.2,1.2s0.5,1.2,1.2,1.2S423.6,16.7,423.6,16.1 M420.2,20v-6.1h1.1v0.6
		c0.3-0.4,0.8-0.6,1.4-0.6c1.2,0,2.1,1,2.1,2.1c0,0,0,0,0,0.1c0,1.2-0.9,2.2-2.1,2.2l0,0c-0.5,0-1-0.2-1.3-0.6V20H420.2z"/>
	<path d="M428.5,16.1c0-0.7-0.5-1.2-1.2-1.2s-1.2,0.5-1.2,1.2s0.5,1.2,1.2,1.2S428.5,16.7,428.5,16.1 M428.5,18.2v-0.6
		c-0.3,0.4-0.8,0.6-1.4,0.6c-1.2,0-2.1-1-2.1-2.1V16c0-1.2,0.9-2.2,2.1-2.2l0,0c0.5,0,1,0.2,1.3,0.6v-0.5h1.1v4.3L428.5,18.2z"/>
	<path d="M418.3,14.3c0.3-0.5,0.9-0.6,1.4-0.4V15c-0.2-0.1-0.5-0.2-0.8-0.2c-0.4,0.1-0.6,0.4-0.6,0.8v2.6h-1.1v-4.3h1.1V14.3
		L418.3,14.3z"/>
	<path d="M443,13.7l-1.3-0.7l-1.3-0.7c-0.6-0.3-1.4-0.1-1.7,0.5c-0.1,0.2-0.2,0.4-0.2,0.6v0.2c0,0.1,0,0.2,0.1,0.2l0.6,0.3
		c0.1,0.1,0.3,0,0.3-0.1v-0.1v-0.4c0-0.1,0.1-0.3,0.2-0.3s0.1,0,0.2,0l1.2,0.7l1.2,0.7c0.1,0.1,0.2,0.2,0.1,0.3l-0.1,0.1l-1.2,0.7
		l-1.2,0.7c-0.1,0.1-0.3,0-0.3-0.1v-0.1V16c0-0.7-0.6-1.2-1.3-1.2c-0.2,0-0.4,0.1-0.6,0.2l-1.3,0.7l-1.2,0.7
		c-0.6,0.3-0.8,1.1-0.5,1.7c0.1,0.2,0.3,0.4,0.5,0.5l1.3,0.7l1.3,0.7c0.6,0.4,1.4,0.1,1.7-0.4c0.1-0.2,0.2-0.4,0.2-0.7v-0.2
		c0-0.1,0-0.2-0.1-0.2l-0.6-0.3c-0.1-0.1-0.3,0-0.3,0.1v0.1v0.4c0,0.1-0.1,0.3-0.2,0.3s-0.1,0-0.1,0l-1.2-0.7l-1.2-0.7
		c-0.1-0.1-0.2-0.2-0.1-0.3l0.1-0.1l1.2-0.7l1.2-0.7c0.1-0.1,0.3,0,0.3,0.1v0.1v0.1c0,0.7,0.6,1.3,1.3,1.3c0.2,0,0.4-0.1,0.6-0.2
		l1.3-0.7l1.3-0.7c0.6-0.3,0.8-1.1,0.5-1.7C443.4,13.9,443.2,13.8,443,13.7z"/>
	<path d="M405,16.6c-0.2,1-1.2,1.7-2.2,1.7c-1.2,0-2.2-1-2.2-2.2s1-2.2,2.2-2.2c1,0,1.9,0.7,2.2,1.7h-1.1c-0.2-0.4-0.6-0.6-1-0.6
		c-0.7,0-1.2,0.5-1.2,1.2s0.5,1.2,1.2,1.2c0.5,0,0.9-0.3,1-0.7L405,16.6z"/>
	<path d="M405.5,18.2v-6.1h1.1v6.1H405.5z"/>
	<path d="M408.2,16.4c0,0.6,0.5,1,1.1,1c0.4,0,0.8-0.2,1-0.6h1.1c-0.3,0.9-1.2,1.6-2.2,1.5c-1.2,0.1-2.2-0.8-2.2-2
		c0-0.1,0-0.1,0-0.2c0-1.2,0.9-2.2,2.1-2.2h0.1c1.2,0,2.2,0.9,2.2,2.1v0.1c0,0.1,0,0.2,0,0.3L408.2,16.4z M410.4,15.7
		c-0.1-0.5-0.5-0.9-1.1-0.9c-0.5,0-1,0.4-1.1,0.9H410.4z"/>
	<path d="M415.4,18.2v-0.6c-0.3,0.4-0.8,0.6-1.4,0.6c-1.2,0-2.1-1-2.1-2.1V16c0-1.2,0.9-2.2,2.1-2.2l0,0c0.5,0,1,0.2,1.3,0.6v-0.6
		h1.1v4.4L415.4,18.2z M415.4,16.1c0-0.7-0.5-1.2-1.2-1.2s-1.2,0.5-1.2,1.2s0.5,1.2,1.2,1.2S415.4,16.7,415.4,16.1L415.4,16.1z"/>
</g>
<g>
	<path class="st14" d="M391.2,2h-37.9c-2,0-3.6,1.6-3.6,3.5v21c0,2,1.6,3.5,3.6,3.5h37.9c2,0,3.6-1.6,3.6-3.5v-21
		C394.7,3.6,393.1,2,391.2,2z"/>
</g>
<g>
	<g>
		<path class="st15" d="M341.6,1.9h-38.3c-2,0-3.6,1.6-3.6,3.5v21.1c0,2,1.6,3.5,3.6,3.5h38.3c2,0,3.6-1.6,3.6-3.5V5.4
			C345.1,3.5,343.5,1.9,341.6,1.9z"/>
	</g>
	<g>
		<g>
			<path d="M313.5,11.7c0.3-0.4,0.6-1,0.5-1.6c-0.5,0-1.1,0.3-1.5,0.7c-0.3,0.4-0.6,1-0.5,1.5C312.6,12.4,313.1,12.1,313.5,11.7"/>
			<path d="M314,12.5c-0.8,0-1.5,0.5-1.9,0.5s-1-0.4-1.6-0.4c-0.8,0-1.6,0.5-2,1.2c-0.9,1.5-0.2,3.7,0.6,5c0.4,0.6,0.9,1.3,1.6,1.2
				c0.6,0,0.9-0.4,1.6-0.4s1,0.4,1.6,0.4c0.7,0,1.1-0.6,1.5-1.2c0.5-0.7,0.7-1.4,0.7-1.4s-1.3-0.5-1.3-2c0-1.2,1-1.8,1.1-1.9
				C315.2,12.6,314.3,12.5,314,12.5"/>
		</g>
		<g>
			<path d="M321.1,10.8c1.8,0,3,1.2,3,3s-1.2,3-3,3h-1.9v3.1h-1.5v-9.1H321.1L321.1,10.8z M319.1,15.6h1.6c1.2,0,1.9-0.7,1.9-1.8
				c0-1.2-0.7-1.8-1.9-1.8h-1.6V15.6L319.1,15.6z"/>
			<path d="M324.4,18c0-1.2,0.9-1.9,2.5-2l1.8-0.1v-0.5c0-0.7-0.5-1.2-1.3-1.2s-1.3,0.4-1.4,1h-1.3c0.1-1.2,1.1-2.1,2.7-2.1
				s2.6,0.8,2.6,2.2v4.6h-1.3v-1.1l0,0c-0.4,0.7-1.2,1.2-2.1,1.2C325.3,20,324.4,19.2,324.4,18z M328.7,17.4v-0.5l-1.6,0.1
				c-0.8,0-1.3,0.4-1.3,1s0.5,1,1.2,1C328,18.9,328.7,18.3,328.7,17.4z"/>
			<path d="M331.3,22.3v-1.1c0.1,0,0.3,0,0.4,0c0.6,0,1-0.3,1.2-0.9l0.1-0.4l-2.4-6.6h1.5l1.7,5.4l0,0l1.7-5.4h1.4l-2.5,7
				c-0.6,1.6-1.2,2.1-2.6,2.1C331.8,22.4,331.4,22.4,331.3,22.3z"/>
		</g>
	</g>
</g>
<g>
	<g transform="translate(4.4136 8.4)">
		<path class="st16" d="M383.3,9.3c-0.6,0-1,0.5-1,1s0.5,1,1,1c0.6,0,1-0.5,1-1C384.2,9.8,383.8,9.3,383.3,9.3z M380.2,8.7
			c0-0.7-0.6-1.2-1.3-1.2s-1.3,0.6-1.3,1.2s0.6,1.2,1.3,1.2S380.2,9.3,380.2,8.7z M380.2,6.2h1.4v5.1h-1.4v-0.4
			c-0.5,0.2-1,0.5-1.4,0.5c-1.4,0-2.7-1.1-2.7-2.7s1.1-2.7,2.7-2.7c0.6,0,1.1,0.1,1.4,0.5V6.2L380.2,6.2z M368.4,6.6V6.2H367v5.1
			h1.4V8.8c0-0.8,0.8-1.2,1.3-1.2l0,0V6.2C369.2,6.2,368.6,6.4,368.4,6.6L368.4,6.6z M364.5,8.7c0-0.7-0.6-1.2-1.3-1.2
			s-1.4,0.6-1.4,1.2c0,0.6,0.6,1.2,1.3,1.2S364.5,9.3,364.5,8.7z M364.5,6.2h1.4v5.1h-1.4v-0.4c-0.5,0.2-1,0.5-1.4,0.5
			c-1.4,0-2.7-1.1-2.7-2.7s1.1-2.7,2.7-2.7c0.6,0,1.1,0.1,1.4,0.5V6.2L364.5,6.2z M373.4,6c-0.6,0-1.1,0.2-1.4,0.7V6.2h-1.4v5.1h1.4
			V8.6c0-0.8,0.5-1.1,1.1-1.1c0.7,0,1.1,0.5,1.1,1.1v2.7h1.4V8C375.6,6.6,374.8,6,373.4,6L373.4,6z M358.2,11h1.4V3.8h-1.4V11z
			 M351.5,11h1.6V3.8h-1.6V11z M357.3,3.9c0,1.6-0.6,3-1.7,4.1l2.3,3.1h-2l-2.7-3.5l0.7-0.5c1.1-0.8,1.7-2,1.7-3.3h1.7V3.9z"/>
	</g>
</g>
</svg>
